<?xml version="1.0" encoding="utf-8"?>
<!-- Svg Vector Icons : http://www.onlinewebfonts.com/icon -->
<!DOCTYPE svg PUBLIC "-//W3C//DTD SVG 1.1//EN" "http://www.w3.org/Graphics/SVG/1.1/DTD/svg11.dtd">
<svg version="1.1" xmlns="http://www.w3.org/2000/svg" xmlns:xlink="http://www.w3.org/1999/xlink" x="0px" y="0px" viewBox="0 0 1000 1000" enable-background="new 0 0 1000 1000" xml:space="preserve">
<metadata> Svg Vector Icons : http://www.onlinewebfonts.com/icon </metadata>
<g><g><g id="steering_x5F_wheel"><path d="M500,10C229.4,10,10,229.4,10,500s219.4,490,490,490s490-219.4,490-490S770.6,10,500,10z M500,132.5c159.5,0,294.2,102.7,345,245H155C205.8,235.2,340.5,132.5,500,132.5z M500,561.3c-33.8,0-61.3-27.4-61.3-61.3s27.4-61.3,61.3-61.3s61.3,27.4,61.3,61.3S533.8,561.3,500,561.3z M132.5,500c167.4,0,302.9,161.3,305.8,361.3C265,831.6,132.5,681.5,132.5,500z M561.7,861.3c2.8-200,138.4-361.3,305.8-361.3C867.5,681.5,735,831.6,561.7,861.3z"/></g></g><g></g><g></g><g></g><g></g><g></g><g></g><g></g><g></g><g></g><g></g><g></g><g></g><g></g><g></g><g></g></g>
</svg>